<svg width="1100" height="1250" xmlns="http://www.w3.org/2000/svg" stroke="null" style="vector-effect: non-scaling-stroke;" data-name="Capa 1">
 <title stroke="null" style="vector-effect: non-scaling-stroke;">texpert</title>

 <g stroke="null">
  <title stroke="null">Layer 1</title>
  <path stroke="null" class="cls-1" d="m1053.45771,61.05734l0,179.13108l-60.8798,0l0,-118.25128l-412.1253,0l0,648.62785l28.66281,0c201.78616,0 367.65209,-156.68237 382.38477,-354.75383l61.06324,0a444.21618,444.21618 0 0 1 -228.15594,360.10804l-45.20698,25.07422l45.20698,25.08569a444.21618,444.21618 0 0 1 228.15594,360.10804l-61.01738,0c-14.73268,-198.07146 -180.61008,-354.75383 -382.38477,-354.75383l-28.66281,0l0,293.87403l118.25128,0l0,60.8798l-297.40528,0l0,-60.8798l118.22835,0l0,-293.87403l-28.66281,0c-201.78616,0 -367.64062,156.68237 -382.37331,354.75383l-61.04031,0a444.21618,444.21618 0 0 1 228.15594,-360.10804l45.20698,-25.08569l-45.20698,-25.07422a444.21618,444.21618 0 0 1 -228.15594,-360.10804l61.01738,0c14.73268,198.07146 180.59861,354.75383 382.37331,354.75383l28.66281,0l0,-648.62785l-412.09091,0l0,118.25128l-60.8798,0l0,-179.13108l1006.87854,0m28.66281,-28.66281l-1064.22708,0l0,236.47962l118.25128,0l0,-118.25128l354.74236,0l0,591.19905c-195.91602,0 -354.74236,-158.82634 -354.74236,-354.74236l-118.25128,0c0,178.08775 98.42808,333.18793 243.84023,413.89093c-145.41215,80.69153 -243.84023,235.79171 -243.84023,413.89093l118.25128,0c0,-195.92748 158.82634,-354.75383 354.74236,-354.75383l0,236.50255l-118.20542,0l0,118.26274l354.74236,0l0,-118.25128l-118.28567,0l0,-236.50255c195.92748,0 354.75383,158.82634 354.75383,354.75383l118.25128,0c0,-178.08775 -98.42808,-333.18793 -243.84023,-413.89093c145.46948,-80.6686 243.84023,-235.72292 243.84023,-413.85653l-118.25128,0c0,195.91602 -158.82634,354.74236 -354.75383,354.74236l0,-591.24491l354.75383,0l0,118.25128l118.25128,0l0,-236.50255l-0.02293,0.02293z" fill="#33a3cb" id="svg_1"/>
 </g>
</svg>